PathFileType	4	(x/y/z)	S01_M20_T09.trc
DataRate	CameraRate	NumFrames	NumMarkers	Units	OrigDataRate	OrigDataStartFrame	OrigNumFrames
240	240	10	51	mm	240	118	471
Frame#	Time	Sternum			R.Acromium			L.Acromium			Top.Head			R.ASIS			L.ASIS			R.PSIS			L.PSIS			R.Great.Tro			L.Great.Tro			R.Iliac.Crest			L.Iliac.Crest			V.Sacral			R.Thigh.Upper.Post			R.Thigh.Lower.Ant			R.Thigh.Lower.Post			R.Thigh.Upper.Ant			R.Knee.Lat			R.Knee.Med			R.Shank.Upper.Post			R.Shank.Lower.Ant			R.Shank.Lower.Post			R.Shank.Upper.Ant			R.Ankle.Lat			R.Ankle.Med			R.Heel.Upper			R.Heel.Med			R.Heel.Lat			R.Toe.Lat			R.Toe.Med			R.Toe.Tip			L.Thigh.Upper.Post			L.Thigh.Lower.Ant			L.Thigh.Lower.Post			L.Thigh.Upper.Ant			L.Knee.Lat			L.Knee.Med			L.Shank.Upper.Post			L.Shank.Lower.Ant			L.Shank.Lower.Post			L.Shank.Upper.Ant			L.Ankle.Lat			L.Ankle.Med			L.Heel.Upper			L.Heel.Med			L.Heel.Lat			L.Toe.Lat			L.Toe.Med			L.Toe.Tip			Cervical.Spine			Back			
		X1	Y1	Z1	X2	Y2	Z2	X3	Y3	Z3	X4	Y4	Z4	X5	Y5	Z5	X6	Y6	Z6	X7	Y7	Z7	X8	Y8	Z8	X9	Y9	Z9	X10	Y10	Z10	X11	Y11	Z11	X12	Y12	Z12	X13	Y13	Z13	X14	Y14	Z14	X15	Y15	Z15	X16	Y16	Z16	X17	Y17	Z17	X18	Y18	Z18	X19	Y19	Z19	X20	Y20	Z20	X21	Y21	Z21	X22	Y22	Z22	X23	Y23	Z23	X24	Y24	Z24	X25	Y25	Z25	X26	Y26	Z26	X27	Y27	Z27	X28	Y28	Z28	X29	Y29	Z29	X30	Y30	Z30	X31	Y31	Z31	X32	Y32	Z32	X33	Y33	Z33	X34	Y34	Z34	X35	Y35	Z35	X36	Y36	Z36	X37	Y37	Z37	X38	Y38	Z38	X39	Y39	Z39	X40	Y40	Z40	X41	Y41	Z41	X42	Y42	Z42	X43	Y43	Z43	X44	Y44	Z44	X45	Y45	Z45	X46	Y46	Z46	X47	Y47	Z47	X48	Y48	Z48	X49	Y49	Z49	X50	Y50	Z50	X51	Y51	Z51	

118	0.4875	-696.62	1234.3	270.08	-803.98	1484.2	452.72	-819.7	1507.2	125.01	-751.36	1809.4	290.3	-736.36	983.43	413.06	-751.73	987.13	144.37	-979.62	1028.2	340.99	-991.14	1038.5	239.38	-804.47	933.33	501.73	-877.43	954.5	75.739	-825.59	1078.4	487.68	-868.96	1071.2	81.131	-1001.3	999.1	286.12	-690.46	651.82	470.85	-598.53	620.27	435.2	-649.85	575.2	446.23	-636.86	699.65	457.97	-602.62	534.31	439.95	-605.73	532.94	295.39	-597.12	366.37	461.94	-510.47	311.33	420.51	-575.56	299.5	451.03	-536.34	378.36	437.03	-495.2	110.23	417	-468.6	128.96	324.59	-544.1	54.831	357.08	-516.04	35.244	328.85	-520.97	32.82	393.64	-348.64	103.73	453.45	-321.89	123.72	331.06	-277.67	171.83	386.04	-994.58	703.27	109.07	-936.13	609.31	101.12	-1012.6	615.01	124.4	-928.2	702.92	83.041	-1000	518.52	109.47	-961.48	507.69	250.32	-1108.3	407.48	101.57	-1084.5	300.84	123.15	-1138.2	335.03	107.34	-1053.7	372.14	111.74	-1230.1	134.75	153.69	-1197.4	142.46	249.16	-1307.3	120.37	203.53	-1298.4	93.85	236.71	-1304.2	92.596	174.79	-1102.3	39.252	134.22	-1073.7	44.636	255.22	-1011	46.722	203.19	-893.6	1557.3	296.46	-996.47	1249	304.01
119	0.49167	-690.27	1234	270.69	-797.68	1483.3	454.06	-813.71	1507	126.31	-745.57	1809.1	291.98	-729.53	983.1	413.24	-745.53	986.66	144.54	-972.99	1027.7	341.77	-984.76	1037.9	240.17	-797.21	932.89	501.99	-871.51	953.91	76.197	-818.66	1077.7	488.37	-862.77	1070.9	81.667	-994.78	998.53	286.98	-684.39	651.17	470.55	-592.59	619.24	434.94	-644.11	574.37	445.94	-630.56	698.76	457.82	-596.84	533.41	439.61	-600.63	531.99	295.18	-592.28	365.49	461.61	-506.25	309.7	419.85	-571.29	298.42	450.69	-531.51	376.97	436.4	-492.87	108.88	416.68	-466.26	126.79	324.09	-542.94	54.811	356.99	-515.43	34.488	328.74	-520.15	32.476	393.57	-346.59	100.21	452.71	-319.75	119.54	330.23	-274.56	166.9	385.05	-989.01	702.99	109.65	-930.56	608.97	101.04	-1007	614.67	124.84	-922.73	702.67	83.279	-994.51	518.24	109.49	-955.31	506.98	250.13	-1103.7	408.38	101.59	-1081.1	301.45	122.92	-1134.5	336.22	107.34	-1049.5	372.46	111.54	-1228.5	136.66	153.41	-1195.5	144.13	248.84	-1305.8	123.47	203.34	-1297.1	96.983	236.6	-1303	95.536	174.7	-1102.1	39.318	134.21	-1073.5	44.698	255.28	-1010.8	46.467	203.18	-887.52	1556.8	297.98	-990.13	1248.4	304.87
120	0.49583	-683.89	1233.8	271.3	-791.36	1482.6	455.41	-807.74	1506.9	127.63	-739.78	1808.8	293.68	-722.68	982.86	413.43	-739.3	986.27	144.72	-966.33	1027.4	342.58	-978.33	1037.4	240.97	-789.92	932.54	502.27	-865.53	953.34	76.673	-811.63	1077.1	489.08	-856.51	1070.7	82.217	-988.17	998.04	287.87	-678.38	650.59	470.29	-586.71	618.26	434.73	-638.44	573.6	445.69	-624.31	697.93	457.73	-591.1	532.59	439.32	-595.62	531.11	294.98	-587.47	364.7	461.3	-502.02	308.18	419.23	-567.03	297.45	450.37	-526.7	375.69	435.82	-490.54	107.66	416.4	-463.87	124.76	323.63	-541.79	54.971	356.89	-514.81	33.916	328.64	-519.37	32.292	393.48	-344.59	96.731	452.09	-317.6	115.41	329.53	-271.44	161.95	384.22	-983.32	702.7	110.25	-924.85	608.63	100.96	-1001.1	614.32	125.29	-917.13	702.45	83.53	-988.86	517.96	109.49	-948.94	506.25	249.91	-1099	409.31	101.6	-1077.5	302.11	122.68	-1130.6	337.47	107.34	-1045.2	372.8	111.33	-1226.7	138.67	153.11	-1193.4	145.87	248.5	-1304.1	126.73	203.15	-1295.7	100.28	236.48	-1301.8	98.642	174.64	-1101.9	39.393	134.21	-1073.3	44.77	255.34	-1010.6	46.196	203.17	-881.43	1556.3	299.52	-983.75	1247.8	305.76
121	0.5	-677.47	1233.7	271.92	-785.03	1481.8	456.78	-801.77	1506.9	128.95	-733.98	1808.6	295.39	-715.81	982.71	413.61	-733.02	985.95	144.92	-959.65	1027.1	343.4	-971.85	1036.9	241.78	-782.63	932.28	502.57	-859.48	952.79	77.166	-804.48	1076.6	489.79	-850.17	1070.5	82.783	-981.53	997.62	288.78	-672.42	650.09	470.09	-580.88	617.36	434.57	-632.81	572.93	445.48	-618.11	697.18	457.7	-585.39	531.88	439.09	-590.66	530.34	294.81	-582.66	364.02	461.02	-497.8	306.79	418.67	-562.77	296.59	450.09	-521.89	374.52	435.29	-488.22	106.57	416.16	-461.46	122.89	323.24	-540.62	55.289	356.79	-514.2	33.516	328.54	-518.61	32.25	393.4	-342.65	93.308	451.57	-315.45	111.36	328.95	-268.33	157.02	383.55	-977.51	702.4	110.84	-918.97	608.29	100.86	-995.11	613.94	125.73	-911.39	702.23	83.792	-983.02	517.66	109.49	-942.36	505.51	249.65	-1094.1	410.27	101.61	-1073.8	302.81	122.42	-1126.6	338.78	107.34	-1040.7	373.17	111.11	-1224.7	140.76	152.82	-1191.2	147.66	248.16	-1302.2	130.14	202.97	-1294.2	103.74	236.38	-1300.4	101.92	174.58	-1101.7	39.479	134.2	-1073.1	44.854	255.4	-1010.5	45.908	203.15	-875.33	1555.9	301.08	-977.34	1247.3	306.66
122	0.50417	-671.01	1233.7	272.55	-778.69	1481.2	458.17	-795.82	1506.9	130.29	-728.18	1808.4	297.1	-708.95	982.64	413.79	-726.7	985.7	145.14	-952.95	1026.9	344.22	-965.34	1036.5	242.59	-775.34	932.13	502.88	-853.36	952.27	77.675	-797.24	1076.3	490.52	-843.76	1070.4	83.362	-974.86	997.28	289.69	-666.49	649.69	469.94	-575.07	616.58	434.47	-627.21	572.36	445.32	-611.95	696.54	457.73	-579.69	531.29	438.92	-585.75	529.69	294.68	-577.85	363.45	460.78	-493.58	305.54	418.17	-558.51	295.85	449.85	-517.1	373.48	434.83	-485.93	105.6	415.95	-459.04	121.17	322.9	-539.45	55.742	356.7	-513.58	33.274	328.45	-517.87	32.331	393.32	-340.78	89.955	451.15	-313.31	107.41	328.48	-265.25	152.12	383.02	-971.56	702.07	111.44	-912.92	607.95	100.75	-988.92	613.52	126.16	-905.49	702.01	84.061	-976.98	517.35	109.46	-935.58	504.74	249.36	-1089.1	411.27	101.61	-1070	303.56	122.14	-1122.4	340.13	107.34	-1036	373.56	110.87	-1222.5	142.94	152.51	-1188.8	149.52	247.82	-1300.2	133.72	202.8	-1292.4	107.38	236.29	-1298.8	105.38	174.54	-1101.4	39.58	134.2	-1072.9	44.953	255.46	-1010.3	45.597	203.13	-869.23	1555.6	302.65	-970.9	1246.8	307.58
123	0.50833	-664.54	1233.7	273.18	-772.33	1480.7	459.56	-789.87	1507.1	131.65	-722.37	1808.4	298.82	-702.09	982.65	413.97	-720.35	985.53	145.38	-946.25	1026.9	345.04	-958.78	1036.1	243.39	-768.07	932.1	503.22	-847.17	951.78	78.197	-789.92	1076	491.24	-837.28	1070.5	83.954	-968.16	997.02	290.61	-660.57	649.41	469.86	-569.27	615.94	434.42	-621.6	571.92	445.23	-605.81	696.03	457.83	-573.98	530.83	438.81	-580.84	529.19	294.58	-573.05	363	460.6	-489.37	304.41	417.74	-554.25	295.24	449.67	-512.3	372.55	434.43	-483.68	104.76	415.79	-456.63	119.62	322.62	-538.29	56.305	356.62	-512.97	33.173	328.37	-517.16	32.516	393.25	-338.98	86.687	450.83	-311.21	103.56	328.13	-262.22	147.29	382.64	-965.47	701.71	112.03	-906.69	607.62	100.62	-982.56	613.07	126.58	-899.43	701.8	84.334	-970.73	517.02	109.41	-928.57	503.96	249.02	-1083.8	412.29	101.59	-1065.9	304.35	121.84	-1118	341.54	107.33	-1031.1	373.96	110.62	-1220.2	145.21	152.19	-1186.2	151.44	247.46	-1297.9	137.47	202.63	-1290.5	111.19	236.2	-1297.1	109.02	174.51	-1101.2	39.699	134.2	-1072.7	45.07	255.52	-1010.1	45.263	203.1	-863.12	1555.4	304.24	-964.44	1246.5	308.53
124	0.5125	-658.04	1233.9	273.81	-765.97	1480.2	460.97	-783.93	1507.3	133.01	-716.56	1808.4	300.55	-695.25	982.76	414.16	-713.96	985.44	145.64	-939.56	1027	345.85	-952.2	1035.8	244.18	-760.84	932.21	503.57	-840.91	951.3	78.732	-782.54	1075.9	491.97	-830.73	1070.6	84.557	-961.44	996.85	291.52	-654.65	649.27	469.85	-563.46	615.46	434.43	-615.97	571.64	445.19	-599.67	695.67	457.99	-568.25	530.52	438.78	-575.91	528.84	294.54	-568.24	362.68	460.49	-485.17	303.41	417.38	-550	294.76	449.55	-507.51	371.75	434.1	-481.48	104.03	415.68	-454.26	118.23	322.4	-537.14	56.952	356.55	-512.36	33.196	328.3	-516.48	32.784	393.19	-337.26	83.515	450.6	-309.16	99.846	327.87	-259.28	142.56	382.37	-959.22	701.32	112.6	-900.26	607.27	100.47	-976	612.58	126.96	-893.2	701.58	84.608	-964.25	516.66	109.32	-921.34	503.15	248.65	-1078.3	413.34	101.57	-1061.7	305.18	121.52	-1113.4	342.99	107.31	-1026.1	374.38	110.35	-1217.6	147.58	151.87	-1183.4	153.42	247.1	-1295.3	141.38	202.47	-1288.4	115.19	236.12	-1295.2	112.85	174.5	-1100.9	39.839	134.2	-1072.5	45.209	255.58	-1009.9	44.901	203.06	-857	1555.3	305.85	-957.97	1246.2	309.49
125	0.51667	-651.53	1234.2	274.45	-759.6	1479.8	462.37	-778	1507.6	134.37	-710.76	1808.6	302.29	-688.42	982.97	414.36	-707.55	985.41	145.94	-932.88	1027.1	346.65	-945.6	1035.6	244.94	-753.67	932.46	503.95	-834.58	950.85	79.279	-775.12	1076	492.68	-824.12	1070.8	85.169	-954.72	996.76	292.42	-648.7	649.27	469.93	-557.62	615.16	434.5	-610.29	571.51	445.23	-593.53	695.47	458.21	-562.48	530.34	438.81	-570.94	528.66	294.56	-563.45	362.49	460.44	-480.99	302.54	417.09	-545.77	294.42	449.5	-502.74	371.07	433.85	-479.35	103.4	415.61	-451.95	116.99	322.24	-536.01	57.662	356.5	-511.75	33.326	328.25	-515.82	33.116	393.14	-335.62	80.452	450.44	-307.18	96.275	327.7	-256.44	137.96	382.21	-952.81	700.88	113.15	-893.63	606.93	100.31	-969.25	612.04	127.31	-886.8	701.36	84.878	-957.55	516.28	109.19	-913.88	502.31	248.22	-1072.6	414.41	101.51	-1057.2	306.05	121.17	-1108.6	344.48	107.28	-1020.8	374.81	110.05	-1214.8	150.05	151.54	-1180.4	155.46	246.73	-1292.5	145.46	202.3	-1286.1	119.38	236.05	-1293.1	116.88	174.5	-1100.6	40.005	134.2	-1072.2	45.372	255.64	-1009.7	44.509	203.02	-850.88	1555.2	307.46	-951.49	1246	310.47
126	0.52083	-645.01	1234.6	275.09	-753.22	1479.5	463.78	-772.08	1508	135.75	-704.95	1808.8	304.03	-681.62	983.27	414.58	-701.11	985.46	146.26	-926.21	1027.4	347.41	-938.97	1035.5	245.67	-746.57	932.87	504.35	-828.18	950.42	79.836	-767.67	1076.1	493.39	-817.45	1071.1	85.788	-948	996.77	293.29	-642.71	649.42	470.08	-551.73	615.05	434.62	-604.55	571.55	445.34	-587.36	695.45	458.5	-556.66	530.31	438.91	-565.9	528.64	294.64	-558.66	362.42	460.47	-476.85	301.78	416.89	-541.57	294.2	449.52	-497.97	370.5	433.68	-477.3	102.87	415.59	-449.7	115.91	322.15	-534.91	58.413	356.47	-511.16	33.545	328.22	-515.2	33.496	393.11	-334.09	77.507	450.35	-305.28	92.861	327.6	-253.72	133.5	382.13	-946.23	700.4	113.67	-886.8	606.57	100.12	-962.29	611.45	127.62	-880.21	701.12	85.14	-950.6	515.87	109.02	-906.18	501.45	247.74	-1066.7	415.5	101.44	-1052.6	306.95	120.8	-1103.5	346.02	107.22	-1015.4	375.24	109.73	-1211.8	152.6	151.2	-1177.2	157.57	246.34	-1289.4	149.71	202.14	-1283.5	123.76	235.99	-1290.7	121.11	174.52	-1100.3	40.205	134.21	-1072	45.565	255.7	-1009.5	44.083	202.97	-844.75	1555.3	309.08	-945	1245.9	311.46
127	0.525	-638.48	1235	275.74	-746.84	1479.3	465.18	-766.15	1508.6	137.13	-699.14	1809	305.77	-674.86	983.68	414.81	-694.65	985.57	146.62	-919.57	1027.8	348.13	-932.33	1035.4	246.35	-739.55	933.43	504.77	-821.71	950.01	80.404	-760.24	1076.4	494.09	-810.74	1071.4	86.411	-941.28	996.86	294.13	-636.68	649.73	470.31	-545.8	615.13	434.81	-598.73	571.77	445.53	-581.18	695.61	458.83	-550.79	530.41	439.08	-560.77	528.8	294.78	-553.9	362.46	460.58	-472.75	301.12	416.76	-537.41	294.09	449.61	-493.24	370.03	433.59	-475.35	102.43	415.6	-447.55	114.97	322.11	-533.84	59.188	356.47	-510.58	33.839	328.21	-514.6	33.909	393.09	-332.65	74.686	450.31	-303.48	89.615	327.56	-251.14	129.21	382.13	-939.47	699.86	114.16	-879.75	606.2	99.91	-955.13	610.79	127.88	-873.44	700.87	85.389	-943.41	515.43	108.8	-898.24	500.55	247.21	-1060.5	416.6	101.33	-1047.7	307.88	120.4	-1098.2	347.59	107.15	-1009.7	375.67	109.39	-1208.6	155.26	150.85	-1173.7	159.73	245.95	-1286	154.14	201.98	-1280.7	128.34	235.94	-1288.1	125.53	174.54	-1099.9	40.445	134.22	-1071.6	45.793	255.76	-1009.3	43.621	202.92	-838.63	1555.4	310.7	-938.52	1245.8	312.46
